<?xml version="1.0" encoding="UTF-8"?>
<!-- Uploaded to: SVG Find, www.svgrepo.com, Generator: SVG Find Mixer Tools -->
<svg fill="#000000" width="800px" height="800px" version="1.1" viewBox="144 144 512 512" xmlns="http://www.w3.org/2000/svg">
 <g>
  <path d="m366.89 374.57c5.1367-8.7891 2.5273-20.098-5.9375-25.758l-12.68-8.5273c0.73828-4.1289 1.1094-8.2305 1.1094-12.25 0-4.0156-0.375-8.1289-1.1133-12.289l12.703-8.5078c8.4023-5.6836 11.012-17.004 5.9375-25.762l-3.9375-6.8125c-5.1211-8.832-16.258-12.195-25.281-7.6758l-13.688 6.7109c-6.3359-5.3203-13.559-9.4961-21.281-12.305l-1.0195-15.281c-0.74219-10.086-9.2305-17.984-19.328-17.984h-7.8555c-10.184 0-18.676 7.9297-19.332 18.035l-1.0195 15.227c-7.7461 2.8086-14.98 6.9805-21.324 12.309l-13.609-6.6914c-9.168-4.5469-20.289-1.1523-25.32 7.6719l-3.9219 6.7891c-5.0781 8.7656-2.4766 20.082 5.9609 25.789l12.645 8.4688c-0.75391 4.1289-1.1328 8.25-1.1328 12.309 0 4.0352 0.38281 8.1445 1.1328 12.27l-12.633 8.4961c-8.4844 5.6562-11.102 16.98-5.9883 25.719l3.9336 6.8594c5.043 8.7656 16.145 12.164 25.301 7.6992l13.652-6.7109c6.3516 5.3047 13.586 9.4688 21.312 12.262l1.0156 15.211c0.66016 10.121 9.1523 18.051 19.332 18.051h7.8555c10.098 0 18.586-7.9023 19.332-18.035l1.0195-15.23c7.7031-2.8008 14.922-6.9609 21.266-12.262l13.699 6.7188c9.0586 4.4414 20.164 1.0859 25.305-7.707zm-13.078-7.5742-3.8984 6.7969c-1.1328 1.9336-3.5742 2.6914-5.5664 1.7148l-18.289-8.9648c-2.8711-1.4062-6.3125-0.85938-8.5938 1.3672-6.7422 6.5586-15.023 11.332-23.949 13.801-3.0938 0.85547-5.3125 3.5781-5.5234 6.7812l-1.3594 20.305c-0.16406 2.2305-2.0312 3.9805-4.2539 3.9805h-7.8555c-2.2773 0-4.1016-1.6836-4.25-3.9297l-1.3594-20.355c-0.21484-3.207-2.4336-5.9297-5.5352-6.7812-8.9531-2.4648-17.246-7.2344-23.988-13.797-1.4453-1.4062-3.3438-2.1445-5.2734-2.1445-1.1328 0-2.2695 0.25391-3.332 0.77344l-18.211 8.9531c-2.0234 0.97266-4.4609 0.25391-5.5547-1.6484l-3.9609-6.9062c-1.0938-1.8633-0.51172-4.3633 1.3203-5.5859l16.926-11.387c2.6602-1.7891 3.9023-5.0664 3.0977-8.168-1.207-4.6523-1.8203-9.2852-1.8203-13.77 0-4.5156 0.61328-9.168 1.8203-13.82 0.80859-3.1094-0.4375-6.3906-3.1094-8.1797l-16.898-11.316c-1.8555-1.2539-2.4375-3.7422-1.3164-5.6797l3.9492-6.8398c1.0938-1.918 3.5039-2.6367 5.5195-1.6445l18.238 8.9648c2.8789 1.4141 6.3359 0.86328 8.6211-1.3867 6.7109-6.5742 15-11.359 23.973-13.832 3.1016-0.85547 5.3203-3.5742 5.5312-6.7812l1.3633-20.367c0.14453-2.2344 1.9688-3.918 4.25-3.918h7.8555c2.2227 0 4.0898 1.7461 4.25 3.9297l1.3594 20.355c0.21484 3.2031 2.4297 5.9219 5.5234 6.7812 8.9453 2.4766 17.227 7.2578 23.934 13.832 2.2891 2.2422 5.7422 2.7969 8.6133 1.3867l18.344-8.9922c1.9648-0.97266 4.375-0.22266 5.4922 1.707l3.9375 6.8086c1.1133 1.9219 0.53516 4.4141-1.293 5.6523l-16.926 11.336c-2.6484 1.7773-3.9023 5.0195-3.125 8.1133 1.2031 4.8164 1.7891 9.3594 1.7891 13.887 0 4.4766-0.60156 9.125-1.7852 13.816-0.78125 3.0938 0.46484 6.3438 3.1133 8.1211l16.926 11.387c0.007813 0.003906 0.015625 0.011719 0.023438 0.015625 1.7969 1.2109 2.3789 3.7109 1.2578 5.6289z"/>
  <path d="m278.45 288.45c-16.004 0-30.348 9.5508-36.543 24.336-1.6133 3.8516 0.19922 8.2773 4.0469 9.8906 3.8398 1.6133 8.2773-0.19922 9.8906-4.0469 3.8359-9.1523 12.707-15.066 22.605-15.066 13.473 0 24.434 10.984 24.434 24.488 0 13.473-10.961 24.434-24.434 24.434-9.9102 0-18.781-5.8906-22.605-15.012-1.6133-3.8477-6.0469-5.6602-9.8906-4.0469-3.8477 1.6133-5.6602 6.0391-4.0469 9.8906 6.1836 14.75 20.527 24.281 36.543 24.281 21.809 0 39.551-17.742 39.551-39.547 0-21.836-17.742-39.602-39.551-39.602z"/>
  <path d="m612.63 274.05c0-12.5-10.168-22.672-22.672-22.672h-77.234v-2.5195c0-4.1758-3.3828-7.5586-7.5586-7.5586-4.1758 0-7.5586 3.3828-7.5586 7.5586v2.5195h-77.23c-12.5 0-22.672 10.168-22.672 22.672v248.12c0 12.5 10.168 22.672 22.672 22.672h169.58c12.5 0 22.672-10.168 22.672-22.672v-187.67c0-4.1758-3.3828-7.5586-7.5586-7.5586-4.1758 0-7.5586 3.3828-7.5586 7.5586v187.67c0 4.168-3.3906 7.5586-7.5586 7.5586h-169.58c-4.168 0-7.5586-3.3906-7.5586-7.5586v-248.12c0-4.168 3.3906-7.5586 7.5586-7.5586h169.58c4.168 0 7.5586 3.3906 7.5586 7.5586v10.078c0 4.1758 3.3828 7.5586 7.5586 7.5586s7.5586-3.3828 7.5586-7.5586z"/>
  <path d="m570.02 301.75h-129.71c-4.1758 0-7.5586 3.3828-7.5586 7.5586s3.3828 7.5586 7.5586 7.5586h129.71c4.1758 0 7.5586-3.3828 7.5586-7.5586s-3.3828-7.5586-7.5586-7.5586z"/>
  <path d="m440.31 376.07h55.863c4.1758 0 7.5586-3.3828 7.5586-7.5586 0-4.1758-3.3828-7.5586-7.5586-7.5586l-55.863 0.003906c-4.1758 0-7.5586 3.3828-7.5586 7.5586 0 4.1719 3.3828 7.5547 7.5586 7.5547z"/>
  <path d="m567.3 376.07c4.1758 0 7.5586-3.3828 7.5586-7.5586 0-4.1758-3.3828-7.5586-7.5586-7.5586h-26.98c-4.1758 0-7.5586 3.3828-7.5586 7.5586 0 4.1758 3.3828 7.5586 7.5586 7.5586z"/>
  <path d="m440.31 435.27h84.48c4.1758 0 7.5586-3.3828 7.5586-7.5586s-3.3828-7.5586-7.5586-7.5586l-84.48 0.003906c-4.1758 0-7.5586 3.3828-7.5586 7.5586 0 4.1719 3.3828 7.5547 7.5586 7.5547z"/>
  <path d="m440.31 494.46h129.71c4.1758 0 7.5586-3.3828 7.5586-7.5586 0-4.1758-3.3828-7.5586-7.5586-7.5586l-129.71 0.003906c-4.1758 0-7.5586 3.3828-7.5586 7.5586s3.3828 7.5547 7.5586 7.5547z"/>
  <path d="m278.45 439.14c-45.363 0-82.273 36.906-82.273 82.273 0 0.71094 0.023438 1.5078 0.11328 2.2188 0.53125 4.1406 4.3281 6.9141 8.4609 6.3867 4.1406-0.52734 7.0703-4.4648 6.543-8.6055 0-37.031 30.129-67.156 67.156-67.156 37.031-0.003907 67.16 30.125 67.16 67.156s-30.086 67.16-67.078 67.203c-0.027344 0-0.054688-0.007813-0.082031-0.007813-0.03125 0-0.058594 0.007813-0.089844 0.007813-27.949-0.035156-53.223-17.656-62.902-43.875-1.4492-3.918-5.8008-5.9102-9.707-4.4727-3.918 1.4453-5.918 5.793-4.4727 9.707 10.992 29.77 38.402 50.461 69.613 53.371v12.973c0 4.1758 3.3828 7.5586 7.5586 7.5586s7.5586-3.3828 7.5586-7.5586v-12.965c41.832-3.8359 74.715-39.098 74.715-81.938 0-45.371-36.906-82.277-82.273-82.277z"/>
  <path d="m262.19 551.76c1.4766 1.4766 3.4102 2.2148 5.3438 2.2148s3.8672-0.73828 5.3438-2.2148l49.961-49.961c2.9531-2.9492 2.9531-7.7383 0-10.688-2.9531-2.9531-7.7344-2.9531-10.688 0l-44.617 44.617-22.785-22.785c-2.9531-2.9531-7.7344-2.9531-10.688 0-2.9531 2.9492-2.9531 7.7383 0 10.688z"/>
  <path d="m278.43 224.55c4.1758 0 7.5586-3.3828 7.5586-7.5586v-10.078c0-4.1758-3.3828-7.5586-7.5586-7.5586s-7.5586 3.3828-7.5586 7.5586v10.078c0 4.1758 3.3828 7.5586 7.5586 7.5586z"/>
  <path d="m278.43 190.92c4.1758 0 7.5586-3.3828 7.5586-7.5586v-2.5195h2.5195c4.1758 0 7.5586-3.3828 7.5586-7.5586s-3.3828-7.5586-7.5586-7.5586h-10.078c-4.1758 0-7.5586 3.3828-7.5586 7.5586v10.078c0 4.1758 3.3828 7.5586 7.5586 7.5586z"/>
  <path d="m382.4 180.84h18.781c4.1758 0 7.5586-3.3828 7.5586-7.5586s-3.3828-7.5586-7.5586-7.5586h-18.781c-4.1758 0-7.5586 3.3828-7.5586 7.5586 0.003906 4.1758 3.3867 7.5586 7.5586 7.5586z"/>
  <path d="m438.75 180.84h18.781c4.1758 0 7.5586-3.3828 7.5586-7.5586s-3.3828-7.5586-7.5586-7.5586h-18.781c-4.1758 0-7.5586 3.3828-7.5586 7.5586s3.3828 7.5586 7.5586 7.5586z"/>
  <path d="m326.06 180.84h18.781c4.1758 0 7.5586-3.3828 7.5586-7.5586s-3.3828-7.5586-7.5586-7.5586h-18.781c-4.1758 0-7.5586 3.3828-7.5586 7.5586s3.3828 7.5586 7.5586 7.5586z"/>
  <path d="m495.09 180.84h2.5195v2.5195c0 4.1758 3.3828 7.5586 7.5586 7.5586s7.5586-3.3828 7.5586-7.5586l-0.003906-10.074c0-4.1758-3.3828-7.5586-7.5586-7.5586h-10.078c-4.1758 0-7.5586 3.3828-7.5586 7.5586 0.003906 4.1719 3.3867 7.5547 7.5625 7.5547z"/>
  <path d="m505.16 202c-4.1758 0-7.5586 3.3828-7.5586 7.5586v13.098c0 4.1758 3.3828 7.5586 7.5586 7.5586 4.1758 0 7.5586-3.3828 7.5586-7.5586v-13.098c0-4.1758-3.3828-7.5586-7.5586-7.5586z"/>
  <path d="m505.16 614.43c-3.1719 0-5.8867 1.9531-7.0078 4.7227h-8.4219c-4.1758 0-7.5586 3.3828-7.5586 7.5586 0 4.1758 3.3828 7.5586 7.5586 7.5586h15.43c4.1758 0 7.5586-3.3828 7.5586-7.5586v-4.7227c0-4.1758-3.3828-7.5586-7.5586-7.5586z"/>
  <path d="m449.43 619.16h-20.152c-4.1758 0-7.5586 3.3828-7.5586 7.5586 0 4.1758 3.3828 7.5586 7.5586 7.5586h20.152c4.1758 0 7.5586-3.3828 7.5586-7.5586 0-4.1758-3.3828-7.5586-7.5586-7.5586z"/>
  <path d="m328.52 619.16h-20.152c-4.1758 0-7.5586 3.3828-7.5586 7.5586 0 4.1758 3.3828 7.5586 7.5586 7.5586h20.152c4.1758 0 7.5586-3.3828 7.5586-7.5586 0-4.1758-3.3828-7.5586-7.5586-7.5586z"/>
  <path d="m505.16 553.98c-4.1758 0-7.5586 3.3828-7.5586 7.5586v20.152c0 4.1758 3.3828 7.5586 7.5586 7.5586 4.1758 0 7.5586-3.3828 7.5586-7.5586v-20.152c0-4.1758-3.3828-7.5586-7.5586-7.5586z"/>
  <path d="m388.97 619.16h-20.152c-4.1758 0-7.5586 3.3828-7.5586 7.5586 0 4.1758 3.3828 7.5586 7.5586 7.5586h20.152c4.1758 0 7.5586-3.3828 7.5586-7.5586 0-4.1758-3.3828-7.5586-7.5586-7.5586z"/>
  <path d="m599.73 303.97c-1.4141 1.4102-2.2188 3.3242-2.2188 5.3398 0 1.9648 0.80859 3.9297 2.2188 5.3398 1.4102 1.4102 3.375 2.2188 5.3359 2.2188 2.0156 0 3.9297-0.80859 5.3398-2.2148 1.4141-1.4141 2.2188-3.3281 2.2188-5.3438s-0.80469-3.9297-2.2148-5.3398c-2.7695-2.8203-7.8594-2.8203-10.68 0z"/>
 </g>
</svg>